<svg width="900" height="900" viewBox="0 0 900 900" fill="none" xmlns="http://www.w3.org/2000/svg">
<rect width="900" height="900" rx="450" fill="#00FF00"/>
<path d="M700.889 492.001V384.93H739.817C747.949 384.93 753.938 385.928 757.784 387.925C761.679 389.921 764.869 393.256 767.352 397.931C769.835 402.556 771.077 407.936 771.077 414.071C771.077 422.154 768.959 428.703 764.723 433.718C760.535 438.733 754.425 441.922 746.391 443.286C749.653 445.233 752.136 447.205 753.84 449.202C757.297 453.292 760.34 457.844 762.97 462.859L778.307 492.001H763.7L752.014 469.725C747.486 461.009 744.053 455.142 741.716 452.123C739.428 449.104 737.188 447.084 734.997 446.061C732.855 444.99 729.836 444.454 725.941 444.454H712.502V492.001H700.889ZM712.502 432.184H737.48C742.934 432.184 747.072 431.527 749.896 430.212C752.72 428.898 754.96 426.828 756.616 424.004C758.271 421.18 759.099 417.894 759.099 414.145C759.099 408.74 757.516 404.504 754.352 401.436C751.187 398.32 746.488 396.762 740.256 396.762H712.502V432.184Z" fill="black"/>
<path d="M619.381 492.001V384.93H682.849V397.565H630.994V430.358H679.563V442.921H630.994V479.366H684.894V492.001H619.381Z" fill="black"/>
<path d="M592.942 454.46L604.628 458.039C602.047 470.066 597.519 479.049 591.043 484.989C584.616 490.881 576.777 493.827 567.526 493.827C559.394 493.827 552.432 491.855 546.638 487.911C540.892 483.918 536.169 477.54 532.469 468.775C528.817 460.011 526.991 449.664 526.991 437.735C526.991 425.952 528.817 415.995 532.469 407.863C536.169 399.683 541.16 393.524 547.441 389.385C553.722 385.198 560.733 383.104 568.475 383.104C576.947 383.104 584.227 385.758 590.313 391.065C596.399 396.324 600.66 404.066 603.094 414.291L591.701 417.577C587.805 402.678 579.991 395.228 568.256 395.228C562.413 395.228 557.349 396.738 553.065 399.756C548.78 402.727 545.347 407.377 542.767 413.706C540.235 420.036 538.969 428.046 538.969 437.735C538.969 452.391 541.549 463.395 546.711 470.747C551.872 478.051 558.737 481.703 567.307 481.703C573.636 481.703 579.09 479.463 583.667 474.983C588.292 470.455 591.384 463.614 592.942 454.46Z" fill="black"/>
<path d="M439.202 492.001L472.944 384.93H485.434L521.367 492.001H508.075L497.85 459.573H461.186L451.545 492.001H439.202ZM464.545 448.033H494.271L485.141 418.381C482.317 409.275 480.248 401.874 478.933 396.178C477.814 403.043 476.231 409.86 474.186 416.628L464.545 448.033Z" fill="black"/>
<path d="M379.897 492.001V384.93H391.51V479.366H434.747V492.001H379.897Z" fill="black"/>
<path d="M298.827 492.001V384.93H331.912C339.703 384.93 345.448 385.612 349.149 386.975C354.213 388.825 358.254 392.258 361.273 397.273C364.291 402.288 365.801 408.448 365.801 415.751C365.801 425.392 363.342 433.256 358.424 439.342C353.507 445.428 345.01 448.471 332.935 448.471H310.44V492.001H298.827ZM310.44 435.836H333.154C340.311 435.836 345.546 434.229 348.857 431.016C352.168 427.754 353.823 422.86 353.823 416.336C353.823 412.1 352.995 408.472 351.34 405.453C349.733 402.434 347.761 400.365 345.424 399.245C343.135 398.125 338.972 397.565 332.935 397.565H310.44V435.836Z" fill="black"/>
<path d="M217.246 492.001V384.93H280.714V397.565H228.859V430.358H277.428V442.921H228.859V479.366H282.759V492.001H217.246Z" fill="black"/>
<path d="M128.434 492.001V384.93H167.363C175.494 384.93 181.483 385.928 185.329 387.925C189.225 389.921 192.414 393.256 194.897 397.931C197.38 402.556 198.622 407.936 198.622 414.071C198.622 422.154 196.504 428.703 192.268 433.718C188.08 438.733 181.97 441.922 173.936 443.286C177.198 445.233 179.681 447.205 181.385 449.202C184.842 453.292 187.886 457.844 190.515 462.859L205.852 492.001H191.245L179.56 469.725C175.031 461.009 171.599 455.142 169.261 452.123C166.973 449.104 164.733 447.084 162.542 446.061C160.4 444.99 157.381 444.454 153.486 444.454H140.047V492.001H128.434ZM140.047 432.184H165.025C170.479 432.184 174.617 431.527 177.441 430.212C180.266 428.898 182.505 426.828 184.161 424.004C185.816 421.18 186.644 417.894 186.644 414.145C186.644 408.74 185.062 404.504 181.897 401.436C178.732 398.32 174.033 396.762 167.801 396.762H140.047V432.184Z" fill="black"/>
<path d="M573.515 320.001V225.565H544.593V212.93H614.196V225.565H585.128V320.001H573.515Z" fill="black"/>
<path d="M462.135 320.001V212.93H474.04L520.199 296.994V212.93H531.3V320.001H519.395L473.31 235.863V320.001H462.135Z" fill="black"/>
<path d="M363.683 267.853C363.683 249.594 367.7 235.571 375.734 225.784C383.768 215.949 393.774 211.031 405.751 211.031C413.493 211.031 420.553 213.222 426.932 217.604C433.31 221.987 438.35 228.365 442.05 236.74C445.799 245.066 447.674 254.999 447.674 266.538C447.674 282.412 444.071 295.339 436.865 305.321C428.928 316.325 418.533 321.827 405.678 321.827C392.727 321.827 382.307 316.179 374.419 304.882C367.262 294.657 363.683 282.314 363.683 267.853ZM375.661 268.072C375.661 281.267 378.558 291.517 384.352 298.82C390.195 306.075 397.279 309.703 405.605 309.703C414.126 309.703 421.259 306.027 427.005 298.674C432.799 291.322 435.696 280.513 435.696 266.246C435.696 257.044 434.211 248.815 431.241 241.56C428.953 236.01 425.496 231.579 420.87 228.268C416.293 224.908 411.278 223.228 405.825 223.228C397.06 223.228 389.83 226.88 384.133 234.184C378.485 241.487 375.661 252.783 375.661 268.072Z" fill="black"/>
<path d="M292.838 320.001V212.93H352.07V225.565H304.451V258.724H345.643V271.359H304.451V320.001H292.838Z" fill="black"/>
<path d="M646.465 567.466C648.417 565.513 651.582 565.513 653.535 567.466L685.355 599.285C687.308 601.238 687.308 604.404 685.355 606.356C683.403 608.309 680.237 608.309 678.284 606.356L654.669 582.741C648.585 690.496 559.278 776.001 450 776.001C340.722 776.001 251.415 690.496 245.331 582.741L221.716 606.356C219.763 608.309 216.597 608.309 214.644 606.356C212.692 604.404 212.692 601.238 214.644 599.285L246.465 567.466C248.417 565.513 251.582 565.513 253.535 567.466L285.355 599.285C287.308 601.238 287.308 604.404 285.355 606.356C283.403 608.309 280.237 608.309 278.284 606.356L255.392 583.464C261.818 685.352 346.491 766.001 450 766.001C553.509 766.001 638.181 685.352 644.607 583.464L621.716 606.356C619.763 608.309 616.597 608.309 614.644 606.356C612.692 604.404 612.692 601.238 614.644 599.285L646.465 567.466Z" fill="black"/>
</svg>
